<svg id="Layer_1" data-name="Layer 1" xmlns="http://www.w3.org/2000/svg" viewBox="0 0 122.88 122.88"><defs><style>.cls-1{fill-rule:evenodd;}</style></defs><title>smaller-screen-round</title><path class="cls-1" d="M61.44,0A61.44,61.44,0,1,1,0,61.44,61.44,61.44,0,0,1,61.44,0ZM47.07,38.71a3.14,3.14,0,1,1,6.27,0V53a3.14,3.14,0,0,1-3.13,3.14H35.7a3.14,3.14,0,0,1,0-6.28h6.92L30.16,37.38a3.13,3.13,0,0,1,4.41-4.44L47.07,45.4V38.71ZM35.91,73.07a3.14,3.14,0,1,1,0-6.27H50.15a3.14,3.14,0,0,1,3.14,3.14V84.45a3.14,3.14,0,0,1-6.28,0V77.52L34.58,90a3.13,3.13,0,1,1-4.43-4.41L42.6,73.07Zm39.9,11.16a3.14,3.14,0,0,1-6.28,0V70a3.15,3.15,0,0,1,3.14-3.14H87.18a3.14,3.14,0,0,1,0,6.28H80.25L92.72,85.56A3.13,3.13,0,0,1,88.31,90L75.81,77.54v6.69Zm11.1-34.42a3.14,3.14,0,0,1,0,6.28H72.67A3.15,3.15,0,0,1,69.53,53V38.44a3.14,3.14,0,0,1,6.28,0v6.92L88.24,32.9a3.13,3.13,0,1,1,4.44,4.41L80.22,49.81Z"/></svg>